<svg width="400" height="280" viewBox="0 0 400 280" xmlns="http://www.w3.org/2000/svg"><rect width="400" height="280" fill="#0a0a0a"/><g transform="translate(200,160)"><g stroke="#ffffff" stroke-width="1.4" fill="none"><rect x="-114.0" y="-4.0" width="8" height="8" transform="rotate(-90.0 -110.0 -0.0)"/><rect x="-112.9" y="-19.7" width="8" height="8" transform="rotate(-81.8 -108.9 -15.7)"/><rect x="-109.5" y="-35.0" width="8" height="8" transform="rotate(-73.6 -105.5 -31.0)"/><rect x="-104.1" y="-49.7" width="8" height="8" transform="rotate(-65.5 -100.1 -45.7)"/><rect x="-96.5" y="-63.5" width="8" height="8" transform="rotate(-57.3 -92.5 -59.5)"/><rect x="-87.1" y="-76.0" width="8" height="8" transform="rotate(-49.1 -83.1 -72.0)"/><rect x="-76.0" y="-87.1" width="8" height="8" transform="rotate(-40.9 -72.0 -83.1)"/><rect x="-63.5" y="-96.5" width="8" height="8" transform="rotate(-32.7 -59.5 -92.5)"/><rect x="-49.7" y="-104.1" width="8" height="8" transform="rotate(-24.5 -45.7 -100.1)"/><rect x="-35.0" y="-109.5" width="8" height="8" transform="rotate(-16.4 -31.0 -105.5)"/><rect x="-19.7" y="-112.9" width="8" height="8" transform="rotate(-8.2 -15.7 -108.9)"/><rect x="-4.0" y="-114.0" width="8" height="8" transform="rotate(0.0 0.0 -110.0)"/><rect x="11.7" y="-112.9" width="8" height="8" transform="rotate(8.2 15.7 -108.9)"/><rect x="27.0" y="-109.5" width="8" height="8" transform="rotate(16.4 31.0 -105.5)"/><rect x="41.7" y="-104.1" width="8" height="8" transform="rotate(24.5 45.7 -100.1)"/><rect x="55.5" y="-96.5" width="8" height="8" transform="rotate(32.7 59.5 -92.5)"/><rect x="68.0" y="-87.1" width="8" height="8" transform="rotate(40.9 72.0 -83.1)"/><rect x="79.1" y="-76.0" width="8" height="8" transform="rotate(49.1 83.1 -72.0)"/><rect x="88.5" y="-63.5" width="8" height="8" transform="rotate(57.3 92.5 -59.5)"/><rect x="96.1" y="-49.7" width="8" height="8" transform="rotate(65.5 100.1 -45.7)"/><rect x="101.5" y="-35.0" width="8" height="8" transform="rotate(73.6 105.5 -31.0)"/><rect x="104.9" y="-19.7" width="8" height="8" transform="rotate(81.8 108.9 -15.7)"/><rect x="106.0" y="-4.0" width="8" height="8" transform="rotate(90.0 110.0 -0.0)"/></g><path d="M-92,0 A92,92 0 0,1 92,0" fill="none" stroke="#aaaaaa" stroke-width="1.5" stroke-dasharray="7,4"/><path d="M-72,0 A72,72 0 0,1 72,0" fill="none" stroke="#FF9A00" stroke-width="1.4" stroke-dasharray="6,4"/><path d="M-52,0 A52,52 0 0,1 52,0" fill="none" stroke="#FF6B00" stroke-width="1.2" stroke-dasharray="5,4"/><circle cx="0" cy="-92" r="6" fill="#FF6B00"/><circle cx="0" cy="-72" r="4" fill="#FF9A00"/><circle cx="0" cy="-56" r="2.5" fill="#FF6B00" opacity="0.6"/><circle cx="0" cy="-42" r="3" fill="#0066FF"/><circle cx="0" cy="-30" r="1.8" fill="#003080"/></g><text x="200" y="205" font-family="'Space Grotesk',Arial,sans-serif" font-size="44" font-weight="700" text-anchor="middle" letter-spacing="6" textLength="220" lengthAdjust="spacing"><tspan fill="#ffffff">Inte</tspan><tspan fill="#FF6B00">r</tspan><tspan fill="#0066FF">outer</tspan></text><text x="200" y="232" font-family="'JetBrains Mono',monospace" font-size="8.5" fill="#666666" letter-spacing="2" text-anchor="middle">FROM INSIDE YOUR APP — TO THE OUTSIDE WORLD</text></svg>
